<svg xmlns="http://www.w3.org/2000/svg" width="24" height="24" viewBox="0 0 24 24">
    <g fill="none" fill-rule="evenodd">
        <g>
            <g>
                <path d="M0 0H24V24H0z"/>
                <path stroke="#909295" stroke-width="2" d="M22.35 11.227l-9.639-6.93c-.427-.308-.841-.379-1.166-.2-.325.178-.504.575-.504 1.117v3.591H8.785C4.493 8.805 1 11.911 1 15.73v2.731c0 .233.144.44.357.511.052.017.104.025.156.025.163 0 .32-.081.418-.226 1.22-1.798 3.453-2.915 5.829-2.915h3.281v3.693c0 .542.18.939.504 1.117.118.065.246.097.384.097.242 0 .51-.1.782-.296l9.638-6.931c.42-.302.651-.712.651-1.154 0-.442-.231-.852-.65-1.154"/>
            </g>
        </g>
    </g>
</svg>
