<svg xmlns="http://www.w3.org/2000/svg" xmlns:xlink="http://www.w3.org/1999/xlink" width="24" height="24" viewBox="0 0 24 24">
    <defs>
        <path id="u2qebf3rza" d="M0 0L23.975 0 23.975 23.991 0 23.991z"/>
        <path id="qssphui2bc" d="M2 3L21.975 3 21.975 20.991 2 20.991z"/>
    </defs>
    <g fill="none" fill-rule="evenodd">
        <g>
            <g>
                <path d="M0 0H24V24H0z"/>
                <mask id="gkzxfs7o6b" fill="#fff">
                    <use xlink:href="#u2qebf3rza"/>
                </mask>
                <g mask="url(#gkzxfs7o6b)">
                    <path d="M0 0H24V24H0z"/>
                    <mask id="2ozsy5jeud" fill="#fff">
                        <use xlink:href="#qssphui2bc"/>
                    </mask>
                    <path fill="#FF4155" d="M5.083 6.374c.658-.748 1.62-1.186 2.636-1.202h.059c.996 0 1.948.405 2.618 1.118l.757.805c.428.454 1.242.454 1.669 0l.757-.805c.684-.727 1.662-1.134 2.677-1.118 1.017.016 1.978.454 2.637 1.202C20.024 7.66 20 9.58 18.839 10.841l-6.851 7.43-6.852-7.43C3.974 9.58 3.951 7.66 5.083 6.374zm6.063 14.253c.214.232.52.364.842.364.321 0 .628-.132.841-.364l7.694-8.344c1.903-2.064 1.94-5.208.087-7.313C19.532 3.745 17.96 3.027 16.293 3c-1.63-.025-3.19.611-4.305 1.751-1.115-1.14-2.68-1.775-4.306-1.75-1.666.026-3.24.744-4.317 1.969-1.853 2.105-1.815 5.25.088 7.313l7.693 8.344z" mask="url(#2ozsy5jeud)"/>
                </g>
            </g>
        </g>
    </g>
</svg>
